<svg width="108" height="108" viewBox="0 0 108 108" fill="none" xmlns="http://www.w3.org/2000/svg">
<path d="M86.3038 23.4146C84.2879 23.946 81.3985 25.2746 79.517 26.5146C78.7331 27.046 75.5077 30.0132 72.3495 33.091L66.5931 38.7374L63.7933 38.1174C61.0831 37.5417 60.9711 37.4974 61.2175 37.0767C61.3518 36.811 61.4638 36.0803 61.4638 35.4603C61.4638 33.1574 59.6944 31.386 57.3873 31.386C56.0658 31.386 55.0355 31.9839 53.2212 33.7996C52.37 34.6631 51.4965 35.3717 51.2949 35.3717C51.0037 35.3717 48.6071 34.8846 45.2921 34.1317L44.7546 34.021L45.2249 33.5339C45.8745 32.8474 46.1657 31.9617 46.1657 30.6332C46.1657 28.0424 43.6346 26.271 40.9916 26.9575C40.2077 27.1789 39.5357 27.6882 37.587 29.5924L35.1456 31.9617L27.4853 30.301C21.4601 29.0167 19.6458 28.7067 18.9515 28.8175C18.2123 28.9725 17.6524 29.3932 15.7709 31.231C13.9566 33.0467 13.4638 33.6667 13.3518 34.331C13.1279 35.5046 13.3966 36.6117 14.1134 37.431C14.5614 37.9181 20.273 41.151 32.0322 47.5502C41.5292 52.7316 49.2567 57.0273 49.2343 57.1159C49.2119 57.2045 45.3145 61.478 40.5884 66.593L32.0098 75.893H30.9571C30.3971 75.893 26.4102 76.0923 22.0873 76.3137L14.2478 76.7565L12.6127 78.4173C11.0448 80.0337 11 80.1222 11 81.1851C11 83.0672 11 83.0672 20.6314 86.6987L29.2548 89.9536L32.5474 98.4786C36.2207 108 36.2207 108 38.1246 108C39.1997 108 39.2893 107.956 40.9244 106.384L42.6267 104.767L43.0971 95.9765L43.5674 87.1637L52.93 78.7051C58.0817 74.0551 62.3822 70.2244 62.4718 70.2023C62.5614 70.1801 66.9067 77.8194 72.1479 87.2079C78.6659 98.8993 81.8913 104.479 82.384 104.9C83.28 105.697 84.4447 105.919 85.6542 105.564C86.3486 105.365 87.1101 104.789 88.6556 103.284C91.6794 100.272 91.6346 100.981 89.5964 91.7251L87.9165 84.108L90.2235 81.8272C92.8442 79.2587 93.3593 78.3287 93.1129 76.6237C92.8442 74.653 91.2315 73.2358 89.238 73.2358C87.9165 73.2358 87.0205 73.5237 86.3262 74.1658L85.8334 74.6308L85.7214 74.0994C84.9823 70.8887 84.4671 68.453 84.4671 68.1873C84.4671 67.988 85.2735 67.0359 86.259 66.0394C88.1629 64.0909 88.4988 63.5152 88.4988 62.1202C88.4988 59.8838 86.7742 58.1788 84.5119 58.1788C83.8848 58.1788 83.1232 58.2673 82.832 58.378C82.2945 58.5773 82.2945 58.5773 81.6897 55.8095L81.0849 53.0416L86.6398 47.4617C89.7084 44.406 92.6874 41.2395 93.2697 40.4424C96.5623 35.8367 97.9062 29.9467 96.3607 26.9132C95.7112 25.651 94.3225 24.2782 92.9785 23.5918C91.5898 22.8832 88.6108 22.7946 86.3038 23.4146Z" fill="white"/>
</svg>
