<svg width="120" height="120" viewBox="0 0 120 120" fill="none" xmlns="http://www.w3.org/2000/svg">
<g clip-path="url(#clip0_643_753)">
<path d="M59.1641 25.3711C58.8301 25.5752 58.4033 26.002 58.1992 26.3359C57.8467 26.9297 57.8281 27.3008 57.8281 36.8193V46.6904L58.7188 46.8018C63.2461 47.4326 67.0684 48.7686 70.7793 51.0322C78.3682 55.6523 83.6934 63.501 85.0479 72.0361C85.2148 73.0566 85.3633 74.0029 85.4004 74.1143C85.4561 74.2998 87.5713 74.3555 95.2529 74.3555C104.697 74.3555 105.068 74.3369 105.662 73.9844C107.072 73.1309 107.239 72.0732 106.627 68.3252C104.196 53.3516 96.6816 41.4209 84.8066 33.6465C78.8691 29.7686 71.5029 26.9111 63.7471 25.4639C60.7412 24.9072 59.9619 24.8887 59.1641 25.3711Z" fill="white"/>
<path d="M48.7354 36.708C30.0694 38.8604 14.6876 54.0381 12.294 72.6484C11.96 75.3018 11.9044 80.7383 12.2013 83.0762C13.3331 92.2793 17.5821 100.87 24.2618 107.568C31.0157 114.322 39.5323 118.553 48.7354 119.722C52.0753 120.148 57.4561 120.019 60.796 119.443C72.1329 117.458 81.7628 111.224 88.3311 101.631C92.3204 95.8232 94.4913 89.7187 95.4005 81.8145L95.5118 80.8496H88.2384C80.1856 80.8496 80.0929 80.8311 79.3507 79.6436C79.0538 79.1797 78.9239 78.4932 78.794 76.749C78.5714 73.8916 78.3487 72.7041 77.6436 70.459C75.714 64.4102 71.2608 59.1035 65.5831 56.0791C62.336 54.3535 59.4044 53.5 55.6007 53.2031C52.9102 52.9805 52.0567 52.665 51.463 51.7373C51.0548 51.0879 51.0548 50.958 50.9991 43.7773L50.9434 36.5039L50.5352 36.5225C50.3126 36.541 49.4962 36.6152 48.7354 36.708ZM35.5987 56.376C36.3966 56.9512 36.7306 57.749 36.6378 58.8066C36.3224 62.0166 31.4981 61.8496 31.4425 58.6211C31.4239 56.3945 33.7989 55.0957 35.5987 56.376ZM56.3243 59.0479C63.4493 60.0684 69.4425 64.8926 71.9102 71.5723C72.8194 74.04 72.9308 74.875 72.9308 78.252C72.9308 81.0537 72.8751 81.7217 72.504 83.0762C70.463 90.6279 64.0245 96.3799 56.4356 97.3818C46.7686 98.6621 38.0108 92.8916 35.0606 83.3174C34.5968 81.7773 34.5597 81.4619 34.5597 78.1592C34.5597 74.8564 34.5968 74.5225 35.0792 72.9639C36.1182 69.4941 37.9552 66.5254 40.5714 64.0762C43.503 61.3301 46.8614 59.6973 50.8692 59.0664C53.0772 58.7324 54.0235 58.7324 56.3243 59.0479ZM27.4347 76.0625C28.1583 76.5635 28.5108 77.3242 28.5108 78.3447C28.5108 79.0684 28.4181 79.3096 27.7872 79.9775C27.0821 80.7383 27.0079 80.7568 25.9132 80.7568C24.8184 80.7568 24.7442 80.7383 24.0391 79.9775C23.4083 79.3096 23.3155 79.0684 23.3155 78.3447C23.3155 77.0088 24.0948 75.9141 25.2638 75.5986C25.8575 75.4502 26.878 75.6543 27.4347 76.0625ZM35.4317 95.6377C36.1925 96.0088 36.6749 96.9365 36.6749 97.9756C36.6749 98.7549 36.5821 98.959 35.9698 99.6084C35.3946 100.239 35.1163 100.388 34.3741 100.462C32.2589 100.703 30.7559 98.5508 31.7208 96.6953C32.0919 95.9717 32.4259 95.7119 33.2794 95.415C34.0216 95.1553 34.5782 95.2109 35.4317 95.6377ZM74.8048 95.6748C75.9923 96.3428 76.4005 98.0684 75.6583 99.293C75.1017 100.184 74.2296 100.592 73.1163 100.462C72.3741 100.388 72.0958 100.239 71.5206 99.6084C70.9083 98.9775 70.8155 98.7363 70.8155 98.0127C70.8155 96.6211 71.3536 95.8603 72.6153 95.415C73.3946 95.1367 73.9698 95.2109 74.8048 95.6748ZM55.2667 103.895C55.9903 104.396 56.3429 105.156 56.3429 106.177C56.3429 106.9 56.2501 107.142 55.6192 107.81C54.9142 108.57 54.8399 108.589 53.7452 108.589C52.6505 108.589 52.5763 108.57 51.8712 107.81C51.2403 107.142 51.1475 106.9 51.1475 106.177C51.1475 104.841 51.9268 103.746 53.0958 103.431C53.6895 103.282 54.71 103.486 55.2667 103.895Z" fill="white"/>
<path d="M51.9238 64.3359C47.3408 64.9668 43.4443 67.6943 41.3105 71.7949C40.2344 73.8359 39.7891 75.6914 39.7891 78.0664C39.7891 83.1689 41.9229 87.2139 46.0977 89.96C48.6211 91.6113 51.1445 92.2793 54.3916 92.1123C60.7188 91.8154 65.7285 87.6592 67.3057 81.4062C67.8252 79.3652 67.7324 76.0811 67.1016 74.0771C65.3203 68.4365 60.5146 64.6699 54.5771 64.2803C53.7607 64.2246 52.5732 64.2617 51.9238 64.3359ZM55.9688 70.3105C61.9619 72.1103 63.8916 79.5879 59.4941 84.0039C55.4678 88.0117 48.751 86.8242 46.3018 81.6846C44.2051 77.2686 46.543 71.9248 51.2744 70.4033C52.7773 69.9023 54.5029 69.8838 55.9688 70.3105Z" fill="white"/>
<path d="M52.4492 75.6914C51.4287 76.2295 50.8906 77.083 50.8906 78.2334C50.8906 81.0723 54.6943 82.1113 56.1602 79.6992C56.9023 78.4746 56.4941 76.5635 55.3438 75.8584C54.3604 75.2461 53.4141 75.1904 52.4492 75.6914Z" fill="white"/>
</g>
<defs>
<clipPath id="clip0_643_753">
<rect width="95" height="95" fill="white" transform="translate(12 25)"/>
</clipPath>
</defs>
</svg>
