<svg width="114" height="114" viewBox="0 0 114 114" fill="none" xmlns="http://www.w3.org/2000/svg">
<path d="M34.4004 39.5215C32.3965 40.0559 30.7934 40.7461 29.4797 41.6145C28.7449 42.1043 25.8059 44.7539 22.9336 47.5371L17.7012 52.5914L17.5453 51.5449C17.3449 50.1867 16.5879 49.0957 15.4523 48.5391C13.6266 47.6484 8.39414 48.1605 6.32344 49.452C3.65156 51.0996 3.71836 54.2391 6.50156 56.666C7.03594 57.1336 8.23828 57.8684 9.17344 58.3137L10.8879 59.1375L7.99336 62.032C6.39023 63.6129 4.63125 65.5277 4.09687 66.2625C2.69414 68.1996 1.18008 71.5395 0.534375 74.0555C0 76.1707 0 76.3711 0 85.6559C0 93.5379 0.0667969 95.3414 0.35625 96.477C0.779297 98.1023 1.69219 99.9727 2.76094 101.375L3.5625 102.422V105.65C3.5625 109.458 3.89648 110.616 5.38828 112.152C7.01367 113.8 7.88203 114 13.582 114C17.9016 114 18.5918 113.955 19.6383 113.555C21.9316 112.709 23.6016 110.259 23.6016 107.766V106.652H57H90.3984V107.766C90.3984 110.259 92.0684 112.709 94.3617 113.555C95.4082 113.955 96.0984 114 100.418 114C106.118 114 106.986 113.8 108.612 112.152C110.104 110.616 110.438 109.458 110.438 105.65V102.422L111.239 101.375C112.308 99.9727 113.221 98.1023 113.644 96.477C113.933 95.3414 114 93.5379 114 85.6559C114 76.3711 114 76.1707 113.466 74.0555C112.82 71.5395 111.306 68.1996 109.903 66.2625C109.369 65.5277 107.61 63.6129 106.007 62.032L103.112 59.1375L104.827 58.3137C105.762 57.8684 106.964 57.1336 107.498 56.666C110.282 54.2391 110.348 51.0996 107.677 49.452C105.606 48.1605 100.373 47.6484 98.5477 48.5391C97.4121 49.0957 96.6551 50.1867 96.4547 51.5449L96.2988 52.5914L90.8438 47.359C87.8379 44.4645 84.8543 41.7926 84.2086 41.3918C83.5406 40.991 82.2047 40.3676 81.2027 39.9891L79.377 39.2988L57.4453 39.2543C39.4992 39.2098 35.3133 39.2766 34.4004 39.5215ZM80.1785 46.3348C81.7594 47.0918 82.4273 47.693 88.6172 53.6824L95.3637 60.2285L76.1707 60.2953C65.6391 60.3176 48.3609 60.3176 37.8293 60.2953L18.6586 60.2285L25.3605 53.727C32.107 47.1586 32.9531 46.4684 35.291 45.7336C36.0035 45.5109 40.657 45.4664 57.334 45.4887L78.4863 45.5332L80.1785 46.3348ZM13.4039 70.4707C17.4785 71.8957 23.3121 75.859 24.9375 78.3305C25.8059 79.6441 25.8059 80.4012 24.9375 81.1359C23.5348 82.2938 20.9742 82.65 14.4281 82.5609C9.61875 82.4941 9.17344 82.4496 8.34961 82.0043C4.89844 80.134 3.78516 75.8813 5.92266 72.6973C7.65937 70.0922 10.1754 69.3352 13.4039 70.4707ZM104.893 70.1813C109.302 71.673 110.616 77.5066 107.276 80.802C105.65 82.4051 105.339 82.4941 99.5719 82.5609C93.0258 82.65 90.4652 82.2938 89.0625 81.1359C88.1941 80.4012 88.1941 79.6441 89.0402 78.3527C90.6879 75.9035 96.3211 72.0293 100.418 70.5375C102.221 69.8918 103.691 69.7582 104.893 70.1813ZM83.0508 78.6422C83.0285 78.9316 82.8949 79.9336 82.7168 80.891C82.2937 83.2734 81.1137 85.6781 79.7332 87.0363C77.7738 88.9512 79.132 88.8398 57 88.8398C39.6105 88.8398 37.3617 88.7953 36.4266 88.4836C34.957 87.9715 33.3094 86.2793 32.352 84.2531C31.6617 82.8281 30.9715 80.0449 30.9492 78.6422V78.1523H57H83.0508V78.6422ZM24.7371 95.3637L28.6559 99.8613L21.3973 99.9281L14.1387 99.9727L12.4242 99.2824C8.50547 97.7016 6.94687 94.9852 8.26055 91.9348L8.72812 90.8438H14.7844L20.8184 90.866L24.7371 95.3637ZM105.739 91.9348C106.385 93.4711 106.363 95.052 105.673 96.1652C104.849 97.4566 103.446 98.5254 101.576 99.2824L99.8613 99.9727L92.6027 99.9281L85.3664 99.8613L89.2629 95.3637L93.1816 90.866L99.2156 90.8438H105.272L105.739 91.9348ZM80.7574 94.5176C80.468 96.6105 78.798 98.6367 76.6828 99.4383C75.6363 99.8391 74.7457 99.8613 57 99.8613C39.2543 99.8613 38.3637 99.8391 37.3172 99.4383C35.202 98.6367 33.532 96.6105 33.2426 94.5176L33.109 93.5156H57H80.891L80.7574 94.5176Z" fill="white"/>
</svg>
