<svg width="120" height="120" viewBox="0 0 120 120" fill="none" xmlns="http://www.w3.org/2000/svg">
<g clip-path="url(#clip0_643_732)">
<g clip-path="url(#clip1_643_732)">
<path d="M52.3196 32.2439C50.6411 33.119 50.0672 34.9554 50.928 36.6052C51.5019 37.7099 52.3913 38.2407 53.6825 38.2407C54.9737 38.2407 55.8632 37.7099 56.437 36.6052C57.2978 34.9554 56.724 33.119 55.0885 32.2726C54.4142 31.9283 52.9365 31.9139 52.3196 32.2439Z" fill="white"/>
<path d="M42.1276 33.7933C41.2955 34.0803 40.3917 35.1275 40.2052 36.017C39.9039 37.4517 40.4634 38.7715 41.6829 39.4602C44.2079 40.9092 47.1202 38.6281 46.3024 35.8305C45.8003 34.0946 43.9066 33.1621 42.1276 33.7933Z" fill="white"/>
<path d="M62.616 33.9368C61.7696 34.3672 61.2388 35.0558 60.9805 36.0457C60.6506 37.4086 61.3392 38.8863 62.616 39.5319C64.5241 40.4788 66.6617 39.4889 67.1782 37.423C67.6516 35.5006 66.1022 33.5781 64.0794 33.5781C63.5772 33.5781 63.1182 33.6929 62.616 33.9368Z" fill="white"/>
<path d="M32.8623 38.5276C31.2985 39.0298 30.3947 40.8374 30.8825 42.4872C31.6285 44.9405 35.0573 45.457 36.535 43.348C36.9367 42.7885 36.9654 42.6307 36.9654 41.5404C36.9654 40.4357 36.9367 40.2922 36.535 39.7184C35.7316 38.585 34.2252 38.0972 32.8623 38.5276Z" fill="white"/>
<path d="M72.4416 38.5133C71.6382 38.8002 71.2221 39.1158 70.7918 39.7758C70.2179 40.6365 70.1462 42.1286 70.6483 43.0468C70.8348 43.4054 71.2652 43.8788 71.5952 44.1227C72.1116 44.4814 72.3699 44.5531 73.245 44.5962C74.4788 44.6679 75.1961 44.381 75.8847 43.5489C76.9177 42.2864 76.8603 40.5935 75.7556 39.3884C74.8661 38.4272 73.618 38.0972 72.4416 38.5133Z" fill="white"/>
<path d="M48.3579 41.9564C47.2963 42.9607 46.0481 43.6637 44.8287 43.9076C44.0396 44.0797 42.1459 44.0367 41.3281 43.8358C40.9838 43.7497 40.9121 43.8071 40.5104 44.6536C40.2665 45.1414 39.9796 45.6578 39.8935 45.7869C39.75 45.9878 39.9365 46.3178 41.0556 47.8672C41.8016 48.8858 42.5906 49.9618 42.8202 50.2487L43.2219 50.7939L44.2118 50.2917C46.2203 49.2875 48.7453 48.4841 50.9976 48.1398L51.5285 48.0537V45.084L51.5141 42.1143L50.4812 41.6121C49.9073 41.3395 49.4195 41.11 49.3765 41.0813C49.3335 41.067 48.8744 41.4543 48.3579 41.9564Z" fill="white"/>
<path d="M56.8754 41.5978L55.8425 42.1143V45.084L55.8281 48.0537L56.3733 48.1398C58.7835 48.5271 61.0502 49.2444 63.1018 50.2774L64.1347 50.7939L64.5364 50.2487C64.766 49.9618 65.555 48.8858 66.301 47.8672L67.6353 46.0308L67.3914 45.6435C67.2622 45.4426 66.9753 44.9262 66.7745 44.5101C66.4445 43.8071 66.3728 43.7497 66.0285 43.8358C65.2107 44.0367 63.317 44.0797 62.5279 43.9076C61.2941 43.6637 60.0173 42.9463 58.9843 41.9421C58.4822 41.44 58.0231 41.0526 57.9801 41.067C57.9371 41.067 57.4493 41.3109 56.8754 41.5978Z" fill="white"/>
<path d="M25.3569 45.9878C24.5105 46.2891 23.7214 47.1355 23.4632 48.0393C23.0615 49.4309 23.5206 50.7651 24.6683 51.5686C25.1991 51.9416 25.443 52.0133 26.3181 52.0563C27.1933 52.0994 27.4515 52.0563 27.9967 51.7551C28.3553 51.5686 28.8287 51.1382 29.0726 50.8082C29.4313 50.2917 29.503 50.0335 29.5461 49.1583C29.5891 48.3119 29.5461 47.9963 29.3022 47.5372C28.5849 46.1169 26.8776 45.4426 25.3569 45.9878Z" fill="white"/>
<path d="M79.7321 45.9878C78.8856 46.2891 78.0966 47.1498 77.8383 48.025C77.2214 50.1196 78.6704 52.085 80.8367 52.085C82.9313 52.085 84.3803 50.2774 83.9356 48.1971C83.8064 47.6233 83.6199 47.3077 83.1035 46.7768C82.171 45.8013 80.9945 45.5287 79.7321 45.9878Z" fill="white"/>
<path d="M35.241 48.6706C34.8537 48.7423 34.3802 48.8427 34.2081 48.8714C34.0072 48.9145 33.8638 49.0579 33.8207 49.2588C33.792 49.4309 33.6916 49.9618 33.6055 50.4209C33.2182 52.5154 31.6401 54.567 29.6746 55.5282C28.7708 55.9729 28.6991 56.0447 28.7708 56.3746C28.8282 56.5755 28.8999 57.1493 28.9573 57.6515L29.0434 58.5409L31.8553 59.4591L34.6672 60.3773L35.3558 59.0718C36.2022 57.4506 37.3643 55.8438 38.7129 54.3948C39.2867 53.7636 39.7602 53.2184 39.7602 53.161C39.7602 53.1036 39.0142 52.042 38.096 50.7795C37.0343 49.3162 36.3457 48.4984 36.2022 48.5128C36.0588 48.5271 35.6427 48.5989 35.241 48.6706Z" fill="white"/>
<path d="M69.2723 50.7652C68.3398 52.0277 67.5938 53.1036 67.5938 53.161C67.5938 53.2184 68.0672 53.7636 68.641 54.3948C70.004 55.8438 71.1517 57.4506 72.0125 59.0861L72.7011 60.3916L75.513 59.4591L78.3105 58.5409L78.3966 57.6371C78.454 57.1493 78.5257 56.5755 78.5831 56.3746C78.6549 56.0447 78.5831 55.9729 77.6793 55.5282C76.5029 54.9543 74.9822 53.491 74.4514 52.4437C74.0066 51.5686 73.6193 50.3204 73.6193 49.7322C73.6193 49.0723 73.4614 48.9288 72.6007 48.7854C72.1703 48.7136 71.6251 48.6132 71.3812 48.5702C70.9508 48.4697 70.9078 48.5128 69.2723 50.7652Z" fill="white"/>
<path d="M51.6862 52.2428C49.2473 52.5298 46.665 53.4766 44.4987 54.8826C43.1214 55.7864 40.7399 58.1679 39.8361 59.5452C35.9195 65.5707 36.2064 73.203 40.5677 78.9272C41.3424 79.9315 43.2362 81.7248 44.2548 82.3991C47.2962 84.4219 50.0794 85.2684 53.6804 85.2684C58.4004 85.2684 62.4461 83.5611 65.631 80.2184C69.7628 75.8714 71.2261 70.0898 69.6623 64.2795C68.9307 61.525 67.5677 59.2009 65.3871 57.0202C62.5752 54.2227 59.3759 52.6732 55.4737 52.2285C54.0104 52.0707 53.207 52.0707 51.6862 52.2428ZM55.8324 59.7604V61.8406H53.6804H51.5284V59.7604V57.6802H53.6804H55.8324V59.7604ZM46.7941 68.7269V70.8789H44.7139H42.6336V68.7269V66.5749H44.7139H46.7941V68.7269ZM64.7272 68.7269V70.8789H62.6469H60.5667V68.7269V66.5749H62.6469H64.7272V68.7269ZM55.8324 77.6934V79.7737H53.6804H51.5284V77.6934V75.6132H53.6804H55.8324V77.6934Z" fill="white"/>
<path d="M21.1114 55.2413C19.0025 55.643 17.9265 57.8667 18.9021 59.8034C20.351 62.7158 24.8415 61.6685 24.8415 58.3975C24.8415 56.3316 23.0912 54.8539 21.1114 55.2413Z" fill="white"/>
<path d="M84.6392 55.2987C83.2763 55.7864 82.6164 56.6616 82.5447 58.1249C82.4873 58.9713 82.5303 59.1865 82.8746 59.8178C83.4198 60.822 84.1945 61.3098 85.3566 61.3815C86.533 61.4676 87.3651 61.152 88.0393 60.3629C90.1339 57.9241 87.6376 54.2227 84.6392 55.2987Z" fill="white"/>
<path d="M26.8256 63.4761L26.0078 64.3512L26.5673 65.4559C27.6577 67.6366 27.6577 69.7455 26.5817 71.9549L26.0078 73.1026L26.8256 73.9777C27.2703 74.4655 27.7437 74.8672 27.8585 74.8815C27.9733 74.8815 29.2645 74.4942 30.7134 74.0207L33.3388 73.1456L33.2528 72.5431C32.8224 69.4873 32.8224 67.9665 33.2528 64.9107L33.3388 64.3082L30.7134 63.4331C29.2645 62.9596 27.9733 62.5723 27.8585 62.5723C27.7437 62.5866 27.2703 62.9883 26.8256 63.4761Z" fill="white"/>
<path d="M76.5771 63.4474L74.0234 64.3082L74.1095 64.9108C74.5399 67.9666 74.5399 69.4873 74.1095 72.5431L74.0234 73.1456L76.6488 74.0208C78.0978 74.4942 79.3603 74.8959 79.4464 74.8959C79.5325 74.8959 79.9916 74.4942 80.4793 74.0208L81.3688 73.1313L80.8093 72.0123C79.7046 69.8029 79.6903 67.7083 80.795 65.4846L81.3688 64.3226L80.4793 63.4331C79.9916 62.9597 79.5038 62.558 79.3747 62.5723C79.2455 62.5723 77.9974 62.974 76.5771 63.4474Z" fill="white"/>
<path d="M18.8182 65.8003C17.6418 66.3167 16.9531 67.3927 16.9531 68.7269C16.9531 71.1945 19.3633 72.6292 21.5583 71.4815C22.663 70.9076 23.1938 70.0181 23.1938 68.7269C23.1938 67.9092 23.1221 67.6653 22.7634 67.0771C21.96 65.7859 20.1811 65.2121 18.8182 65.8003Z" fill="white"/>
<path d="M85.7996 65.9724C84.6949 66.5463 84.1641 67.4358 84.1641 68.7269C84.1641 70.0181 84.6949 70.9076 85.7996 71.4815C87.9946 72.6292 90.4048 71.1945 90.4048 68.7269C90.4048 66.2593 87.9946 64.8247 85.7996 65.9724Z" fill="white"/>
<path d="M20.6816 76.1153C18.0419 76.9618 17.798 80.6775 20.2943 81.9544C20.9829 82.2987 22.2597 82.3417 22.9914 82.0261C23.6657 81.7535 24.4978 80.8784 24.713 80.2471C24.9856 79.415 24.8278 78.0378 24.3687 77.3635C23.6083 76.2014 22.0302 75.6706 20.6816 76.1153Z" fill="white"/>
<path d="M84.2964 76.2444C81.8575 77.3778 81.9292 80.9501 84.4112 81.983C85.5158 82.4565 87.0222 82.1839 87.883 81.3805C89.4611 79.9028 89.0164 77.1626 87.0509 76.2444C86.1041 75.7997 85.2433 75.7997 84.2964 76.2444Z" fill="white"/>
<path d="M31.8566 77.9947L29.0447 78.9129L28.9586 79.8024C28.9012 80.3045 28.8295 80.8784 28.7721 81.0792C28.7004 81.4235 28.7578 81.4953 29.6472 81.9113C30.795 82.4421 32.3731 83.9342 32.9039 85.0101C33.3486 85.8853 33.736 87.1334 33.736 87.7216C33.736 88.3959 33.9225 88.5537 34.7689 88.6828C35.185 88.7402 35.7301 88.8406 35.974 88.8837C36.4044 88.9841 36.4475 88.9411 38.0829 86.6887C39.0155 85.4262 39.7615 84.3502 39.7615 84.2928C39.7615 84.2354 39.2881 83.6903 38.7142 83.059C37.3656 81.61 36.2036 80.0032 35.3571 78.3821L34.6685 77.0766L31.8566 77.9947Z" fill="white"/>
<path d="M71.9981 78.3964C71.1947 79.9315 69.8748 81.7678 68.5406 83.1738C68.0241 83.7333 67.5938 84.2354 67.5938 84.2928C67.5938 84.3359 68.3398 85.4262 69.2723 86.6887C70.9078 88.9411 70.9508 88.9841 71.3812 88.8837C71.6251 88.8406 72.1703 88.7402 72.6007 88.6685C73.4614 88.525 73.6193 88.3816 73.6193 87.7216C73.6193 87.1334 74.0066 85.8853 74.4514 85.0101C74.9822 83.9629 76.5029 82.4995 77.6793 81.9257C78.5831 81.4809 78.6549 81.4092 78.5831 81.0792C78.5257 80.8784 78.454 80.3045 78.3966 79.8167L78.3105 78.9273L75.6421 78.0521C74.1788 77.5643 72.9019 77.1483 72.8302 77.1196C72.7441 77.1053 72.3711 77.6791 71.9981 78.3964Z" fill="white"/>
<path d="M25.2733 85.5266C23.1357 86.4161 22.6335 89.228 24.3264 90.7918C25.5459 91.9108 27.2388 91.9682 28.5012 90.9352C30.0794 89.6297 29.9789 87.0617 28.3004 85.8709C27.7839 85.5123 27.54 85.4405 26.6649 85.4118C26.091 85.3832 25.4741 85.4405 25.2733 85.5266Z" fill="white"/>
<path d="M79.3738 85.6701C78.599 86.0718 77.9965 86.8895 77.7956 87.8077C77.5374 88.9985 77.9391 90.1749 78.8573 90.9352C80.1198 91.9682 81.8127 91.9108 83.0321 90.7918C84.5241 89.4145 84.352 87.0473 82.6878 85.8853C82.157 85.5123 81.9131 85.4405 81.0379 85.3975C80.1915 85.3688 79.8902 85.4118 79.3738 85.6701Z" fill="white"/>
<path d="M42.8202 87.2051C42.5906 87.4921 41.8016 88.5681 41.0556 89.5867C39.9365 91.1361 39.75 91.466 39.8935 91.6669C39.9796 91.796 40.2665 92.3125 40.5104 92.8003C40.9121 93.6467 40.9838 93.7041 41.3281 93.618C42.1459 93.4172 44.0396 93.3741 44.8287 93.5463C46.0338 93.7902 47.2963 94.4788 48.3579 95.4974L49.3191 96.3869L50.4094 95.8704L51.5141 95.3396V92.3699L51.5285 89.4001L50.9976 89.3141C48.7453 88.9698 46.2203 88.1664 44.2118 87.1621L43.2219 86.66L42.8202 87.2051Z" fill="white"/>
<path d="M63.2883 87.1047C61.3659 88.0946 58.7405 88.9411 56.3733 89.3141L55.8281 89.4001L55.8425 92.3699V95.3396L56.9615 95.8704L58.0662 96.4012L58.9987 95.5117C60.0173 94.5075 61.2941 93.7902 62.5279 93.5463C63.317 93.3741 65.2107 93.4172 66.0285 93.618C66.3728 93.7041 66.4445 93.6467 66.7745 92.9437C66.9753 92.5277 67.2479 92.0112 67.3914 91.8104L67.6353 91.4373L65.9567 89.1132C65.0242 87.8507 64.2208 86.7747 64.1778 86.7461C64.1204 86.7174 63.7187 86.8752 63.2883 87.1047Z" fill="white"/>
<path d="M33.065 92.8433C31.8456 93.1302 30.7266 94.5792 30.7266 95.8848C30.7266 98.295 33.4524 99.8731 35.5183 98.6536C35.8769 98.4384 36.3647 97.9937 36.5799 97.6781C36.9242 97.1472 36.9673 96.9464 36.9673 95.8991C36.9673 94.8088 36.9386 94.6653 36.5369 94.0914C35.7765 93.0298 34.4136 92.5277 33.065 92.8433Z" fill="white"/>
<path d="M72.1029 93.0298C71.486 93.3024 70.6539 94.1919 70.453 94.7944C70.3669 95.067 70.3239 95.7126 70.3526 96.2147C70.4243 97.3194 70.9408 98.1658 71.859 98.6823C73.1932 99.414 74.5848 99.2275 75.6464 98.1515C77.2102 96.6021 76.8372 94.0914 74.9004 93.1159C74.2548 92.7716 72.7915 92.7429 72.1029 93.0298Z" fill="white"/>
<path d="M41.7615 97.8933C41.4171 98.0798 40.9437 98.5102 40.6998 98.8401C40.3268 99.3709 40.2694 99.6005 40.2264 100.547C40.1977 101.48 40.2407 101.738 40.5133 102.212C41.575 104.019 43.9278 104.392 45.4628 102.972C47.1127 101.451 46.6536 98.6393 44.6164 97.7785C43.7987 97.4485 42.5218 97.4916 41.7615 97.8933Z" fill="white"/>
<path d="M62.8915 97.7498C62.1168 97.9937 61.3277 98.8688 61.0552 99.8013C60.8543 100.504 60.84 100.748 60.9978 101.408C61.3134 102.828 62.6189 103.876 64.0823 103.876C67.2815 103.876 68.4579 99.5718 65.6747 97.9937C64.8857 97.5346 63.8384 97.4342 62.8915 97.7498Z" fill="white"/>
<path d="M52.6582 99.3279C51.7974 99.6579 51.2809 100.103 50.8936 100.892C49.8033 103.087 51.2379 105.454 53.6768 105.454C56.1444 105.454 57.579 103.044 56.4313 100.849C55.7283 99.5001 54.0211 98.8258 52.6582 99.3279Z" fill="white"/>
</g>
<circle cx="74.1406" cy="90.2384" r="29.9062" fill="#0B0B0B"/>
<g clip-path="url(#clip2_643_732)">
<path d="M70.2062 67.8712C69.5145 68.1387 68.8597 68.7658 68.5 69.5037C68.2141 70.0755 68.1956 70.1861 68.2048 70.9977C68.2141 72.0491 68.3893 72.5195 69.0441 73.2204C70.3168 74.5761 72.3643 74.6499 73.7385 73.3772L74.1443 72.9991L74.5501 73.3772C75.085 73.8752 75.5554 74.0966 76.2932 74.2257C76.9849 74.3456 77.7227 74.2441 78.3314 73.9306C78.894 73.6447 79.558 72.9622 79.8347 72.3904C80.056 71.9385 80.0837 71.7632 80.0929 70.9977C80.0929 70.1861 80.0653 70.0662 79.7886 69.5037C79.4197 68.7474 78.7649 68.1295 78.0363 67.862C77.612 67.696 77.3538 67.6683 76.6805 67.696C75.7214 67.7329 75.1864 67.9358 74.5409 68.5353L74.1443 68.9042L73.7569 68.5353C73.0837 67.9266 72.5672 67.7237 71.5619 67.7052C70.861 67.6868 70.5935 67.7144 70.2062 67.8712Z" fill="white"/>
<path d="M65.223 69.1901C64.3469 69.4668 63.6644 70.1123 63.1848 71.1361L62.8805 71.7817L61.9305 71.754C60.7408 71.7171 60.169 71.9016 59.4312 72.5748C58.8409 73.1189 58.4997 73.7645 58.3613 74.5946C58.306 74.9266 58.2138 75.2402 58.1492 75.2955C58.0939 75.3601 57.7803 75.4523 57.4483 75.5076C56.6182 75.646 55.9727 75.9872 55.4285 76.5775C54.7553 77.3153 54.5708 77.8871 54.6077 79.0768L54.6354 80.0175L53.9068 80.3772C53.0306 80.8015 52.385 81.4563 52.1083 82.2033C51.8317 82.9319 51.8501 83.9372 52.1452 84.7765L52.3666 85.4128L51.6472 86.1138C50.7618 86.9807 50.5312 87.4879 50.5312 88.6131C50.5312 89.4708 50.7157 90.0426 51.2137 90.7251C51.3982 90.9741 51.5457 91.2231 51.5457 91.2877C51.5457 91.3523 51.3982 91.6013 51.2137 91.8503C50.7157 92.5328 50.5312 93.1046 50.5312 93.9623C50.5312 95.0875 50.7618 95.5947 51.6472 96.4616L52.3666 97.1626L52.1452 97.7989C51.8501 98.6382 51.8317 99.6435 52.1083 100.372C52.385 101.119 53.0306 101.774 53.9068 102.198L54.6354 102.558L54.6077 103.499C54.5708 104.688 54.7553 105.26 55.4285 105.998C55.9727 106.588 56.6182 106.929 57.4483 107.068C57.7803 107.123 58.0939 107.215 58.1492 107.28C58.2138 107.335 58.306 107.649 58.3613 107.981C58.4997 108.811 58.8409 109.456 59.4312 110.001C60.169 110.674 60.7408 110.858 61.9305 110.821L62.8712 110.794L63.2309 111.522C63.6552 112.399 64.31 113.044 65.057 113.321C65.7764 113.588 66.7909 113.579 67.6394 113.293L68.2758 113.072L68.9767 113.791C69.8344 114.667 70.3416 114.898 71.4668 114.898C72.3245 114.898 72.8963 114.713 73.5788 114.215C73.8278 114.031 74.0768 113.883 74.1414 113.883C74.206 113.883 74.455 114.031 74.704 114.215C75.3865 114.713 75.9583 114.898 76.816 114.898C77.9412 114.898 78.4484 114.667 79.3153 113.782L80.0163 113.063L80.6526 113.284C81.4919 113.579 82.4972 113.597 83.2258 113.321C83.9728 113.044 84.6276 112.399 85.0519 111.522L85.4116 110.794L86.3523 110.821C87.542 110.858 88.1138 110.674 88.8516 110.001C89.4419 109.456 89.7831 108.811 89.9215 107.981C89.9768 107.649 90.069 107.335 90.1336 107.28C90.1889 107.215 90.5025 107.123 90.8345 107.068C91.6646 106.929 92.3102 106.588 92.8543 105.998C93.5276 105.26 93.712 104.688 93.6751 103.499L93.6475 102.558L94.376 102.198C95.2522 101.774 95.8978 101.119 96.1745 100.372C96.4419 99.6527 96.4327 98.6382 96.1468 97.7897L95.9255 97.1534L96.6448 96.4524C97.521 95.5947 97.7516 95.0875 97.7516 93.9623C97.7516 93.1046 97.5671 92.5328 97.0691 91.8503C96.8846 91.6013 96.7371 91.3523 96.7371 91.2877C96.7371 91.2231 96.8846 90.9741 97.0691 90.7251C97.5671 90.0426 97.7516 89.4708 97.7516 88.6131C97.7516 87.4879 97.521 86.9807 96.6448 86.123L95.9255 85.4221L96.1468 84.7857C96.4327 83.9372 96.4419 82.9227 96.1745 82.2033C95.8978 81.4563 95.2522 80.8015 94.376 80.3772L93.6475 80.0175L93.6751 79.0768C93.712 77.8871 93.5276 77.3153 92.8543 76.5775C92.3102 75.9872 91.6646 75.646 90.8345 75.5076C90.5025 75.4523 90.1889 75.3601 90.1336 75.2955C90.069 75.2402 89.9768 74.9266 89.9215 74.5946C89.7831 73.7645 89.4419 73.1189 88.8516 72.5748C88.1138 71.9016 87.542 71.7171 86.3523 71.754L85.4116 71.7817L85.0519 71.0623C84.5354 70.0017 83.7699 69.3469 82.7739 69.1163C82.5341 69.061 82.5156 69.0702 82.571 69.2639C83.4471 72.4734 81.6579 75.7198 78.4761 76.6974C77.2218 77.0755 76.0874 77.0386 74.7317 76.5682C74.0768 76.3469 74.0676 76.3469 73.671 76.5129C72.7303 76.9095 71.6697 77.0478 70.6737 76.9003C68.3311 76.5406 66.5327 75.0373 65.7395 72.7777C65.4167 71.8554 65.4075 70.0017 65.7211 69.1901C65.7764 69.0333 65.7303 69.0333 65.223 69.1901ZM62.613 79.8608C64.8726 80.2204 66.5788 82.4247 66.3482 84.6842L66.2929 85.2468L68.0544 86.2521C69.0136 86.7962 69.8344 87.285 69.8621 87.3312C69.899 87.3957 69.2995 88.5117 68.7369 89.4155C68.6078 89.6184 68.5986 89.6092 66.7725 88.5578L64.9279 87.4972L64.5313 87.8015C62.8528 89.0835 60.4733 88.9267 58.9055 87.4418C57.9463 86.5196 57.5313 85.5696 57.5128 84.2784C57.5036 82.9965 57.9463 81.9451 58.9055 81.032C59.7079 80.2573 60.6486 79.8608 61.8291 79.7778C61.9305 79.7685 62.281 79.8054 62.613 79.8608ZM87.7357 80.036C88.4735 80.285 88.741 80.451 89.3497 81.0136C90.3181 81.9082 90.7792 82.978 90.77 84.2784C90.7515 85.5696 90.3365 86.5196 89.3773 87.4418C88.3721 88.3918 87.0163 88.8345 85.7436 88.6223C85.0058 88.5024 84.1942 88.1612 83.7054 87.7738L83.3549 87.4879L81.5841 88.5209C80.6065 89.0835 79.7765 89.5538 79.7304 89.5631C79.6197 89.5907 78.3654 87.4326 78.4207 87.3312C78.4484 87.285 79.2692 86.7962 80.2284 86.2521L81.9899 85.2468L81.9346 84.6842C81.8055 83.4299 82.2666 82.1388 83.1981 81.1796C84.4063 79.9253 86.1402 79.4826 87.7357 80.036ZM69.2903 94.1006C69.6315 94.6909 69.8805 95.1981 69.8621 95.2442C69.8344 95.2904 69.0136 95.7792 68.0544 96.3233L66.2929 97.3286L66.3482 97.8912C66.5788 100.169 64.8726 102.355 62.5761 102.724C61.2388 102.936 59.9845 102.53 58.9331 101.562C57.9648 100.667 57.5036 99.5974 57.5128 98.297C57.5313 97.0058 57.9463 96.0558 58.9055 95.1336C59.92 94.1744 61.2573 93.7409 62.5577 93.9531C63.3047 94.0822 64.0702 94.3958 64.5774 94.8016L64.9187 95.0782L66.7448 94.0268C67.7408 93.4458 68.5893 92.9847 68.617 93.0031C68.6447 93.0216 68.949 93.5104 69.2903 94.1006ZM81.7225 94.1375L83.3549 95.0782L83.7054 94.8016C84.1942 94.4142 85.0058 94.073 85.7436 93.9531C87.0163 93.7409 88.3721 94.1836 89.3773 95.1336C90.3365 96.0558 90.7515 97.0058 90.77 98.297C90.7792 99.5974 90.3181 100.667 89.3497 101.562C88.2983 102.53 87.044 102.936 85.7067 102.724C83.4102 102.355 81.704 100.169 81.9346 97.8912L81.9899 97.3286L80.2284 96.3233C79.2692 95.7792 78.4484 95.2904 78.4207 95.2442C78.3931 95.1981 78.6052 94.7554 78.9003 94.2666C79.7396 92.8187 79.6566 92.9109 79.8872 93.0677C79.9978 93.1322 80.8279 93.621 81.7225 94.1375ZM75.5248 99.0348V101.147L76.0413 101.396C77.1111 101.903 78.1256 103.139 78.4392 104.329C78.8265 105.786 78.3285 107.483 77.1941 108.562C75.4326 110.25 72.8502 110.25 71.0887 108.562C69.6776 107.215 69.3271 105.196 70.1849 103.397C70.4708 102.788 71.5683 101.719 72.2323 101.405L72.758 101.147V99.0348V96.9136H74.1414H75.5248V99.0348Z" fill="white"/>
<path d="M61.3381 82.5353C60.8954 82.6645 60.3605 83.2455 60.2222 83.7527C59.9547 84.7027 60.5265 85.7079 61.4765 85.9293C62.5279 86.1875 63.5055 85.5419 63.6807 84.4998C63.8836 83.1901 62.657 82.1572 61.3381 82.5353Z" fill="white"/>
<path d="M85.6202 82.5999C84.0892 83.3377 84.2737 85.4958 85.9061 85.9293C87.354 86.3167 88.5991 84.7304 87.9074 83.3838C87.5016 82.5999 86.4133 82.2218 85.6202 82.5999Z" fill="white"/>
<path d="M61.4915 96.6369C60.6707 96.8951 60.2188 97.4946 60.2188 98.3339C60.2188 99.293 60.7998 99.9847 61.7128 100.105C63.0501 100.289 64.1015 98.9241 63.585 97.6698C63.419 97.2732 63.1239 96.9505 62.8011 96.7752C62.4875 96.6092 61.7958 96.5354 61.4915 96.6369Z" fill="white"/>
<path d="M85.7812 96.6461C85.3108 96.7844 84.7944 97.3655 84.6652 97.9004C84.2687 99.5236 86.0671 100.741 87.4136 99.7634C87.6165 99.6158 87.8471 99.376 87.9209 99.2285C88.6863 97.7621 87.3767 96.185 85.7812 96.6461Z" fill="white"/>
<path d="M73.3557 103.803C72.9499 104.015 72.7562 104.209 72.5625 104.587C72.2305 105.232 72.3965 106.247 72.913 106.708C73.5402 107.28 74.7299 107.28 75.3755 106.708C76.0118 106.136 76.0487 104.864 75.44 104.163C75.0158 103.674 73.946 103.489 73.3557 103.803Z" fill="white"/>
</g>
</g>
<defs>
<clipPath id="clip0_643_732">
<rect width="120" height="120" fill="white"/>
</clipPath>
<clipPath id="clip1_643_732">
<rect width="73.4538" height="73.4538" fill="white" transform="translate(16.9531 32)"/>
</clipPath>
<clipPath id="clip2_643_732">
<rect width="47.2203" height="47.2203" fill="white" transform="translate(50.5312 67.6776)"/>
</clipPath>
</defs>
</svg>
