<svg width="95" height="95" viewBox="0 0 95 95" fill="none" xmlns="http://www.w3.org/2000/svg">
<path d="M42.3047 8.72071C42.3047 13.2295 42.3789 15.957 42.4902 15.957C42.583 15.957 43.6963 15.5859 44.958 15.1221C46.2383 14.6582 47.3887 14.2871 47.5371 14.2871C47.7598 14.2871 50.9326 15.4004 52.5654 16.0498C52.8623 16.1797 52.8809 15.7529 52.8809 8.83204V1.48438H47.5928H42.3047V8.72071Z" fill="white"/>
<path d="M32.8955 22.4141L18.3672 27.7207V37.0537C18.3672 42.9727 18.4414 46.3867 18.5527 46.3867C18.6455 46.3867 25.1953 42.8799 33.1182 38.5752L47.498 30.7637L61.8965 38.5752C69.8008 42.8799 76.3691 46.3867 76.4619 46.3867C76.5547 46.3867 76.6289 42.6572 76.6289 37.0352V27.7021L62.3047 22.4883C54.4189 19.6309 47.832 17.2559 47.6836 17.2002C47.5352 17.1445 40.874 19.501 32.8955 22.4141ZM37.7568 27.1826C38.4805 27.8877 38.3506 28.7783 37.46 29.2422C36.3281 29.8174 32.7656 30.9863 32.4502 30.8936C32.0049 30.7451 31.3555 29.9102 31.3555 29.502C31.3555 28.8154 32.042 28.3701 34.2314 27.5537C35.4561 27.1084 36.6436 26.7373 36.8848 26.7188C37.126 26.7188 37.5156 26.9229 37.7568 27.1826ZM60.5791 27.5537C62.8428 28.3887 63.4551 28.8154 63.4551 29.5762C63.4551 30.1328 62.9912 30.7451 62.4531 30.875C62.0449 30.9678 59.0576 30.04 57.4805 29.3164C56.1816 28.7041 56.5527 26.7373 57.9814 26.7188C58.1855 26.7188 59.3545 27.0898 60.5791 27.5537ZM29.5742 30.0771C30.2607 30.3926 30.5205 31.1904 30.168 31.8584C29.9268 32.3408 29.5557 32.5449 27.5146 33.2686C26.2158 33.751 24.9912 34.1406 24.8057 34.1406C24.3232 34.1406 23.5625 33.3057 23.5625 32.7861C23.5625 31.9883 24.1562 31.5801 26.4385 30.7266C28.9619 29.7988 28.9434 29.7988 29.5742 30.0771ZM68.4648 30.7637C70.2461 31.4316 70.8398 31.7471 71.0439 32.1182C71.4336 32.8047 71.1738 33.5283 70.4316 33.8809C69.8379 34.1777 69.7637 34.1592 67.7041 33.417C64.9951 32.4336 64.8281 32.3408 64.5684 31.7285C64.4014 31.3203 64.4199 31.0977 64.6426 30.6523C65.1621 29.6504 65.5146 29.6504 68.4648 30.7637Z" fill="white"/>
<path d="M25.1381 46.0342C13.7084 52.2314 4.28262 57.3525 4.18984 57.3711C4.09707 57.4082 6.76895 63.2158 10.1088 70.2851L16.1947 83.125H16.7699C17.6977 83.125 19.5902 83.6445 20.6293 84.1641C21.891 84.7949 22.6146 85.2773 25.5092 87.374C26.8451 88.3203 28.5893 89.4336 29.3871 89.8232C32.1146 91.1592 33.9516 90.7881 37.5883 88.1904C42.1527 84.9248 43.2475 84.2754 45.6967 83.4404C45.9936 83.3291 46.0121 82.29 46.0121 65.2754C46.0121 53.3633 46.0863 46.9805 46.1977 46.5351C46.6244 45.0322 48.3686 45.0879 48.7953 46.5908C48.9066 46.9805 48.9809 54.2539 48.9809 65.2754C48.9809 82.29 48.9994 83.3291 49.3148 83.4404C51.7455 84.2754 52.8959 84.9619 57.4047 88.1904C59.7797 89.8975 60.9857 90.417 62.6557 90.5098C63.8617 90.584 64.1215 90.5283 65.3461 89.9717C66.0883 89.6191 68.018 88.3945 69.6322 87.2441C72.5268 85.166 74.6234 83.9043 75.8852 83.5146C76.2563 83.4033 77.1469 83.2549 77.8891 83.1621L79.2436 83.0322L85.1068 70.2666C88.3168 63.2529 90.933 57.4639 90.8959 57.4453C90.8588 57.4082 81.433 52.2871 69.9477 46.0527L49.0736 34.7529L48.9809 37.9258C48.8881 41.3213 48.7582 41.8408 47.9604 42.0449C47.2924 42.2119 46.6059 41.9893 46.3461 41.5068C46.1791 41.2471 46.0678 40.0039 46.0121 37.9258L45.9193 34.7529L25.1381 46.0342Z" fill="white"/>
<path d="M15.6405 86.0752C14.4902 86.3721 12.9501 87.2627 10.3339 89.1367C6.08488 92.1982 4.52629 93.0146 2.42961 93.3115C1.83586 93.4043 8.08879 93.4785 16.7909 93.4785C25.8827 93.4785 31.7275 93.4043 31.078 93.3115C29.4638 93.0889 26.7548 91.6416 23.5634 89.3223C19.5185 86.3721 17.5702 85.5742 15.6405 86.0752Z" fill="white"/>
<path d="M46.1093 86.1494C44.7734 86.5947 43.5488 87.3184 40.7285 89.3408C36.7206 92.1982 35.1806 92.9961 33.121 93.3301C32.6201 93.4043 39.0771 93.4785 47.5009 93.4785C55.9248 93.4785 62.4003 93.4043 61.8808 93.3301C59.8212 92.9961 58.2626 92.1797 54.2734 89.3223C50.0244 86.2979 48.039 85.5186 46.1093 86.1494Z" fill="white"/>
<path d="M76.6858 86.168C75.4983 86.5576 74.1438 87.374 71.1194 89.5264C67.9094 91.8271 65.5344 93.0889 63.9202 93.3115C63.2522 93.4043 68.9485 93.4785 78.2073 93.4785C87.095 93.4785 93.1624 93.4043 92.5501 93.3115C90.4719 93.0146 88.8948 92.1611 84.3303 88.8955C83.0501 87.9678 81.4729 86.9658 80.8235 86.6504C79.3948 85.9824 77.8176 85.7969 76.6858 86.168Z" fill="white"/>
</svg>
