<svg width="108" height="108" viewBox="0 0 108 108" fill="none" xmlns="http://www.w3.org/2000/svg">
<g clip-path="url(#clip0_652_1988)">
<path d="M49.2651 12.8011C36.7135 14.3548 25.9342 21.541 19.622 32.5874C17.3156 36.5932 15.5434 41.9829 14.8879 46.8384C14.6208 48.9506 14.7179 56.7923 15.0578 58.4917C15.2035 59.1958 15.3006 59.2929 16.0046 59.2929C17.1942 59.2929 19.6463 60.6281 20.5688 61.7935C21.3457 62.7646 28.5077 74.1751 30.6198 77.7925C31.7609 79.7104 32.7805 82.5266 33.0233 84.3475L33.1933 85.5128L36.0095 86.9452C45.1864 91.6065 55.553 92.5533 65.3369 89.6643C69.9011 88.3047 74.8781 85.8284 74.8781 84.9058C74.8781 83.9347 75.8977 80.7786 76.796 78.9821C77.2816 77.9624 79.2723 74.6121 81.2146 71.5531C83.1325 68.4698 85.099 65.3137 85.5603 64.5369C87.3811 61.4536 90.0274 59.2929 92.0181 59.2929H92.7708L93.0378 57.2778C93.402 54.7529 93.402 48.9991 93.0621 46.4985C92.9164 45.4546 92.4794 43.3667 92.091 41.8372C87.2112 22.9249 68.7115 10.3733 49.2651 12.8011ZM56.597 23.8717C68.1046 25.1584 77.5972 32.8544 80.9232 43.6337C81.2146 44.532 81.4331 45.3089 81.4331 45.3575C81.4331 45.406 80.7533 45.4546 79.9036 45.4546C78.1556 45.4546 76.3347 44.969 74.3925 43.9979C67.6676 40.6476 58.9519 38.9967 51.183 39.6279C45.4049 40.0892 40.7193 41.3031 35.2083 43.7309C31.1054 45.5517 30.11 45.6974 27.9736 44.7991C26.8325 44.3135 26.8325 44.0707 27.8522 41.4973C32.1008 31.0093 41.909 24.1873 53.5865 23.6289C53.9507 23.6289 55.3102 23.726 56.597 23.8717ZM57.2039 47.5667C58.8548 48.2951 60.6028 50.0431 61.3554 51.7182C62.1323 53.4419 62.0837 56.3067 61.2583 58.079C60.4571 59.7784 58.9519 61.2836 57.2039 62.1334C55.3102 63.0559 52.7854 63.0802 50.8432 62.1819C49.1437 61.3808 47.5414 59.7784 46.7402 58.079C45.9148 56.3067 45.8662 53.4419 46.6431 51.7182C47.3229 50.1887 48.9738 48.465 50.4304 47.7124C52.7611 46.5471 54.7761 46.4985 57.2039 47.5667ZM35.8395 58.2246C37.2476 58.6859 38.243 59.7056 41.6419 64.1484C44.8223 68.2999 45.1136 68.8097 45.5749 71.1889C46.4003 75.2676 46.5217 76.4572 46.2061 77.0641C45.4049 78.5936 44.4338 78.5694 41.302 76.967C35.5725 74.0294 31.0325 69.3196 28.3863 63.59C26.5654 59.6328 27.0024 58.4189 30.377 58.1518C31.2753 58.079 32.0765 57.9819 32.125 57.9333C32.3921 57.6905 34.8441 57.8848 35.8395 58.2246ZM78.7625 58.3218C80.025 58.5645 80.7047 59.2686 80.7047 60.3611C80.7047 60.7738 80.2677 62.0605 79.7579 63.2501C77.8642 67.4745 74.611 71.5774 71.0179 74.2965C68.7601 75.9959 64.5115 78.2295 63.5404 78.2295C62.7392 78.2295 61.841 77.5011 61.6467 76.7C61.4768 76.0688 62.3751 70.8491 62.9092 69.2467C63.2976 68.13 68.6387 60.9195 70.1925 59.4628C71.552 58.1518 72.7174 57.8119 75.3636 57.9576C76.6261 58.0547 78.1556 58.2004 78.7625 58.3218Z" fill="white"/>
<path d="M51.8427 50.6014C50.2889 51.3541 49.3906 52.8836 49.3906 54.7287C49.3906 57.642 51.2115 59.5356 54.0034 59.5356C56.7953 59.5356 58.6162 57.642 58.6162 54.7287C58.6162 51.1841 55.0473 48.9991 51.8427 50.6014Z" fill="white"/>
<path d="M10.0562 52.0581C9.71627 52.2038 8.84227 52.5922 8.11394 52.9078C6.56016 53.5876 4.885 55.1171 4.18095 56.5009C3.88962 57.035 2.79712 60.3125 1.7289 63.7842C-0.116206 69.8294 -0.189039 70.2178 -0.310427 73.0098C-0.480371 76.8214 -0.261872 77.574 3.06417 85.1243C6.29311 92.5048 6.51161 93.2816 6.34166 96.6805C6.24455 98.8412 6.07461 99.6667 5.22489 102.143C4.08384 105.469 3.98673 106.392 4.76361 107.12C5.17633 107.508 5.61333 107.605 6.87577 107.605C7.74977 107.605 12.3625 107.727 17.0967 107.848C21.8308 107.97 25.7395 108.018 25.7881 107.994C25.8367 107.945 25.7395 107.241 25.5939 106.44C25.1812 104.401 25.4968 102.896 27.2448 98.3557C28.0459 96.2921 28.9928 93.4273 29.3569 91.9706C29.9396 89.64 30.0124 88.9845 29.9153 86.5082C29.8182 84.0561 29.6968 83.4492 29.0413 81.774C28.6043 80.7301 27.6818 78.9821 26.9534 77.8896C26.2494 76.8214 23.9916 73.204 21.9522 69.9022C19.5973 66.0906 17.9221 63.6386 17.4123 63.2501C15.7371 61.9634 12.8724 62.3761 11.5856 64.0756C11.1001 64.7068 10.9059 65.2894 10.833 66.2848C10.7602 67.4744 10.9302 68.2513 12.1926 71.9173C12.9695 74.2479 13.8192 76.967 14.062 77.9381C14.4747 79.6861 14.4747 79.7347 14.0134 80.3659C13.0666 81.6283 11.4643 81.2156 11.1487 79.589C11.0515 79.1763 10.1775 76.3601 9.18216 73.3254C8.0411 69.8537 7.38561 67.4259 7.38561 66.7461C7.38561 64.2941 8.79371 61.6963 10.833 60.4339C11.877 59.7784 12.0226 59.6085 11.9013 59.0744C11.8284 58.7102 11.6342 56.9379 11.4643 55.0928C11.2943 53.102 11.0758 51.7668 10.9059 51.791C10.7845 51.791 10.396 51.9124 10.0562 52.0581Z" fill="white"/>
<path d="M96.5399 55.0928C96.37 56.9379 96.1758 58.7102 96.1029 59.0744C95.9815 59.6085 96.1272 59.7784 97.1711 60.4339C99.2105 61.6964 100.619 64.2941 100.619 66.7461C100.619 67.4259 99.9631 69.8537 98.7977 73.3739C97.8024 76.4329 96.9769 79.1278 96.9769 79.3948C96.9769 80.7786 95.1075 81.6526 94.2335 80.7058C93.4809 79.8804 93.748 78.3751 95.6659 72.5728C97.6081 66.6976 97.681 66.212 96.8313 64.5854C96.2971 63.5657 94.9376 62.6432 93.6994 62.4975C92.4127 62.3519 90.7375 62.9102 90.0092 63.7357C89.7422 64.027 87.7514 67.1588 85.5664 70.7034C83.3814 74.2479 81.2935 77.5983 80.9051 78.1809C79.06 80.8757 77.9918 84.4203 78.016 87.7949C78.016 90.4169 78.5987 92.5776 80.7351 98.1372C82.4346 102.531 82.8473 104.498 82.4346 106.392C82.2889 107.096 82.2161 107.727 82.2646 107.775C82.3375 107.848 86.2947 107.775 91.0774 107.63C95.8601 107.484 100.497 107.363 101.395 107.363C104.139 107.363 104.333 106.659 102.779 102.143C101.93 99.6667 101.76 98.8412 101.663 96.6805C101.493 93.2817 101.711 92.5048 104.94 85.1243C108.266 77.574 108.485 76.8214 108.315 73.0098C108.193 70.2178 108.12 69.8294 106.275 63.7842C105.207 60.3125 104.115 57.035 103.823 56.5009C103.046 54.9472 101.226 53.4177 99.1134 52.5437C98.0937 52.1067 97.1711 51.7668 97.0498 51.7668C96.9284 51.7668 96.7099 53.272 96.5399 55.0928Z" fill="white"/>
</g>
<defs>
<clipPath id="clip0_652_1988">
<rect width="108" height="108" fill="white"/>
</clipPath>
</defs>
</svg>
