<svg width="121" height="120" viewBox="0 0 121 120" fill="none" xmlns="http://www.w3.org/2000/svg">
<path d="M48.0037 12.7615C45.4457 14.2846 44.616 17.3308 45.1 23.7C46.137 37.5461 47.1049 40.6615 51.4605 44.7461L54.0185 47.1692L53.8111 52.8461C53.742 56.3769 53.9494 58.8692 54.5025 59.4923C55.4704 60.6692 62.1074 60.8077 63.2827 59.6308C63.7667 59.1461 64.1123 56.6538 64.1123 53.4V48L67.5691 44.1923C69.4358 42.1154 71.1642 39.6923 71.3716 38.8615C71.9938 35.8846 73.1 23.8385 73.1 19.6846C73.1 15.9461 72.8926 15.3923 70.9568 13.8C68.8827 12.0692 68.6062 12 59.0654 12C53.6728 12 48.695 12.3461 48.0037 12.7615Z" fill="white"/>
<path d="M39.8463 42.3923C36.7352 43.3615 35.0759 44.5385 34.0389 46.6154C33.071 48.4154 33.0018 53.1923 33.1401 82.3385L33.3475 115.985L35.629 117.992L37.8413 120H61.4166H84.992L86.9969 117.854L89.0018 115.708V81.7846C89.0018 51.1846 88.8636 47.6538 87.8265 45.8538C86.1673 43.0846 83.3327 42.1154 76.7648 42.1846C71.787 42.1846 70.8882 42.3923 68.6759 44.0538C65.7031 46.3385 64.8043 49.2461 65.2882 54.7846C65.7722 60.3231 64.8734 61.1538 58.5821 61.1538C54.2957 61.1538 53.6734 61.3615 52.7055 62.8154C51.945 63.9923 51.7376 65.2385 52.0833 67.4538C52.7055 71.4 53.3969 72.2308 56.2315 72.2308C59.066 72.2308 59.55 72.9231 59.9648 78.1154C60.2413 81.5769 60.5179 82.2692 61.6932 82.4769C64.9426 83.1 65.4265 84.3462 65.4265 92.5154C65.3574 100.685 64.8734 102.692 62.7994 102.692C60.9327 102.692 59.8265 104.354 59.4117 107.885L59.066 111H54.7105H50.2858V103.523C50.2858 96.3923 50.3549 95.9077 52.0142 94.3846C54.1574 92.3769 54.1574 91.8923 52.0142 91.3385C50.4932 90.9231 50.2858 90.5077 50.2858 87.6C50.2858 83.3077 49.5944 82.4769 45.9994 81.9923L43.0265 81.5769V66.6923V51.8077L48.0734 51.6C52.9821 51.3923 53.0512 51.3923 53.0512 49.4538C53.0512 47.5846 51.1845 45.3692 47.5203 42.9462C45.7228 41.7 42.8191 41.4923 39.8463 42.3923ZM79.4611 53.8846C80.2216 56.4462 79.8759 110.031 79.1154 110.723C78.2858 111.623 70.8191 111.069 70.1969 110.1C69.9203 109.685 69.6438 96.6692 69.6438 81.1615C69.6438 59.7692 69.8512 52.9154 70.4734 52.2923C71.0265 51.7385 72.8241 51.4615 75.1055 51.6C78.6315 51.8077 78.908 51.9462 79.4611 53.8846Z" fill="white"/>
<path d="M73.366 67V62.14H74.794C75.086 62.14 75.322 62.194 75.502 62.302C75.686 62.41 75.82 62.568 75.904 62.776C75.992 62.98 76.036 63.228 76.036 63.52C76.036 63.836 75.982 64.092 75.874 64.288C75.766 64.48 75.614 64.62 75.418 64.708C75.226 64.796 74.998 64.84 74.734 64.84H74.254V67H73.366ZM74.254 64.216H74.59C74.75 64.216 74.874 64.194 74.962 64.15C75.054 64.102 75.116 64.028 75.148 63.928C75.184 63.824 75.202 63.686 75.202 63.514C75.202 63.338 75.188 63.196 75.16 63.088C75.136 62.976 75.08 62.894 74.992 62.842C74.908 62.79 74.774 62.764 74.59 62.764H74.254V64.216Z" fill="white"/>
<path d="M73.366 84.04V79.18H74.53C74.858 79.18 75.134 79.22 75.358 79.3C75.586 79.376 75.758 79.508 75.874 79.696C75.994 79.884 76.054 80.14 76.054 80.464C76.054 80.66 76.036 80.836 76 80.992C75.964 81.148 75.902 81.282 75.814 81.394C75.73 81.502 75.612 81.586 75.46 81.646L76.138 84.04H75.25L74.662 81.814H74.254V84.04H73.366ZM74.254 81.256H74.53C74.702 81.256 74.838 81.232 74.938 81.184C75.042 81.132 75.116 81.052 75.16 80.944C75.204 80.832 75.226 80.69 75.226 80.518C75.226 80.274 75.18 80.092 75.088 79.972C75 79.848 74.83 79.786 74.578 79.786H74.254V81.256Z" fill="white"/>
<path d="M73.366 90.92V86.06H73.984L75.166 88.832V86.06H75.898V90.92H75.31L74.122 88.016V90.92H73.366Z" fill="white"/>
<path d="M73.366 97.8V92.94H74.254V97.188H75.43V97.8H73.366Z" fill="white"/>
<path d="M73.366 105.253V100.393H74.512C74.908 100.393 75.216 100.447 75.436 100.555C75.66 100.663 75.818 100.829 75.91 101.053C76.006 101.277 76.054 101.561 76.054 101.905V103.681C76.054 104.033 76.006 104.327 75.91 104.563C75.818 104.795 75.662 104.969 75.442 105.085C75.226 105.197 74.928 105.253 74.548 105.253H73.366ZM74.254 104.635H74.524C74.728 104.635 74.874 104.599 74.962 104.527C75.05 104.455 75.104 104.351 75.124 104.215C75.144 104.075 75.154 103.905 75.154 103.705V101.845C75.154 101.649 75.14 101.491 75.112 101.371C75.084 101.251 75.026 101.163 74.938 101.107C74.85 101.051 74.708 101.023 74.512 101.023H74.254V104.635Z" fill="white"/>
</svg>
